 http://img215.imageshack.us/img215/9427/apollo18.jpg


Verenigde Staten / Canada
Horror / Sciencefiction
88 minuten

geregisseerd door Gonzalo López-Gallego
met Warren Christie, Lloyd Owen en Ryan Robbins

'Apollo 18' is een film in documentaire-stijl over het "waargebeurde" verhaal van NASA's geheime achttiende vlucht met een Apollo raket naar de maan. De astronauten zijn geschokt wanneer ze buitenaards leven ontdekken tijdens hun missie. Hierna besluit de Amerikaanse overheid de missie geheim te houden voor de buitenwereld.


Vertaald door Simply ReleaseS Toppers
Tokke en Suurtje





Screenshots:
 
http://img267.imageshack.us/img267/3718/screenshot1nd.jpg
 
http://img231.imageshack.us/img231/4048/screenshot2ky.jpg
 
http://img684.imageshack.us/img684/2586/screenshot3fzj.jpg
 
http://img836.imageshack.us/img836/2366/screenshot4jn.jpg



INFO;


Video
ID                                       : 0
Format                                   : MPEG-4 Visual
Format profile                           : Advanced Simple@L5
Format settings, BVOP                    : 1
Format settings, QPel                    : No
Format settings, GMC                     : No warppoints
Format settings, Matrix                  : Custom
Codec ID                                 : XVID
Codec ID/Hint                            : XviD
Duration                                 : 1h 23mn
Bit rate                                 : 1 062 Kbps
Width                                    : 608 pixels
Height                                   : 352 pixels
Display aspect ratio                     : 16:9
Frame rate                               : 25.000 fps
Color space                              : YUV
Chroma subsampling                       : 4:2:0
Bit depth                                : 8 bits
Scan type                                : Progressive
Compression mode                         : Lossy
Bits/(Pixel*Frame)                       : 0.199
Stream size                              : 632 MiB (90%)
Writing library                          : XviD 64

Audio
ID                                       : 1
Format                                   : MPEG Audio
Format version                           : Version 1
Format profile                           : Layer 3
Mode                                     : Joint stereo
Mode extension                           : MS Stereo
Codec ID                                 : 55
Codec ID/Hint                            : MP3
Duration                                 : 1h 23mn
Bit rate mode                            : Variable
Bit rate                                 : 102 Kbps
Nominal bit rate                         : 128 Kbps
Channel(s)                               : 2 channels
Sampling rate                            : 48.0 KHz
Compression mode                         : Lossy
Stream size                              : 60.5 MiB (9%)
Alignment                                : Aligned on interleaves
Interleave, duration                     : 24 ms (0.60 video frame)
Interleave, preload duration             : 458 ms



 
http://www.imdb.com/title/tt1772240/ 
http://www.moviemeter.nl/film/72744




Deze film wordt u aangeboden door het DutchReleaseTeam.
Voor de reviews van de nieuwste films, muziek, series, games etc
ga dan eens naar http://www.hetmultimediacafe.be

DutchReleaseteam = Hardcoded Dutch Subs